<?xml version="1.0" encoding="iso-8859-1"?>
<!-- Generator: Adobe Illustrator 19.0.0, SVG Export Plug-In . SVG Version: 6.00 Build 0)  -->
<svg version="1.1" id="Capa_1" xmlns="http://www.w3.org/2000/svg" xmlns:xlink="http://www.w3.org/1999/xlink" x="0px"
	y="0px" viewBox="0 0 512 512" style="enable-background:new 0 0 512 512;" xml:space="preserve">
	<g>
		<path style="fill:#E3E5E5;" d="M133.761,199.376c-4.267,0-7.726-3.459-7.726-7.726V97.006c0-4.268,3.459-7.726,7.726-7.726
		s7.726,3.459,7.726,7.726v94.644C141.488,195.917,138.028,199.376,133.761,199.376z" />
		<path style="fill:#E3E5E5;" d="M378.239,199.376c-4.267,0-7.726-3.459-7.726-7.726V97.006c0-4.268,3.459-7.726,7.726-7.726
		s7.726,3.459,7.726,7.726v94.644C385.965,195.917,382.506,199.376,378.239,199.376z" />
	</g>
	<path style="fill:#CC4444;" d="M484.223,193.71H27.777c-15.306,0-27.756,12.453-27.756,27.758v262.775
	c0,15.305,12.45,27.757,27.756,27.757h456.446c15.306,0,27.756-12.452,27.756-27.757V221.468
	C511.979,206.162,499.529,193.71,484.223,193.71z" />
	<path style="fill:#B53C3C;" d="M28.801,484.243V221.468c0-15.306,12.451-27.758,27.756-27.758h-28.78
	c-15.306,0-27.756,12.453-27.756,27.758v262.775c0,15.305,12.45,27.757,27.756,27.757h28.78
	C41.252,512,28.801,499.548,28.801,484.243z" />
	<path style="fill:#F95C4B;" d="M483.199,470.858c0,6.827-5.535,12.362-12.362,12.362H41.163c-6.827,0-12.362-5.535-12.362-12.362
	V234.854c0-6.827,5.535-12.362,12.362-12.362h429.674c6.827,0,12.362,5.535,12.362,12.362V470.858z" />
	<path style="fill:#F44B34;" d="M54.212,470.858V234.854c0-6.827,5.535-12.362,12.362-12.362H41.163
	c-6.827,0-12.362,5.535-12.362,12.362v236.004c0,6.827,5.535,12.362,12.362,12.362h25.411
	C59.746,483.22,54.212,477.685,54.212,470.858z" />
	<g>
		<path style="fill:#F5F5F5;" d="M150.32,380.649h-42.603v-16.827h34.641c2.276,0,4.121-1.845,4.121-4.121v-13.436
		c0-2.276-1.845-4.121-4.121-4.121h-34.641V325.06h41.251c2.276,0,4.121-1.845,4.121-4.121v-17.3c0-2.276-1.845-4.121-4.121-4.121
		H82.541c-2.276,0-4.121,1.845-4.121,4.121v98.429c0,2.276,1.845,4.121,4.121,4.121h67.78c2.276,0,4.121-1.845,4.121-4.121v-17.3
		C154.441,382.494,152.596,380.649,150.32,380.649z" />
		<path style="fill:#F5F5F5;" d="M267.113,299.519h-21.522c-1.474,0-2.835,0.787-3.571,2.064l-18.191,31.589l-18.193-31.589
		c-0.735-1.278-2.097-2.064-3.571-2.064h-21.672c-3.268,0-5.246,3.646-3.442,6.386l31.403,47.701l-30.234,46.207
		c-0.828,1.267-0.896,2.885-0.177,4.216c0.72,1.331,2.111,2.161,3.625,2.161h21.675c1.485,0,2.856-0.8,3.587-2.093l16.998-30.058
		l16.996,30.058c0.731,1.293,2.102,2.093,3.587,2.093h21.525c1.514,0,2.905-0.83,3.625-2.161c0.72-1.331,0.652-2.95-0.177-4.216
		l-30.232-46.207l31.402-47.701c0.834-1.266,0.905-2.886,0.186-4.22C270.021,300.351,268.629,299.519,267.113,299.519z" />
		<path style="fill:#F5F5F5;" d="M318.779,299.519h-21.056c-2.276,0-4.121,1.845-4.121,4.121v98.429c0,2.276,1.845,4.121,4.121,4.121
		h21.056c2.276,0,4.121-1.845,4.121-4.121V303.64C322.9,301.364,321.054,299.519,318.779,299.519z" />
		<path style="fill:#F5F5F5;" d="M429.459,299.519h-82.504c-2.276,0-4.121,1.845-4.121,4.121v17.3c0,2.276,1.845,4.121,4.121,4.121
		h26.678v77.009c0,2.276,1.845,4.121,4.121,4.121h21.056c2.276,0,4.121-1.845,4.121-4.121v-77.01h26.529
		c2.276,0,4.121-1.845,4.121-4.121v-17.3C433.58,301.364,431.735,299.519,429.459,299.519z" />
	</g>
	<g>
		<path style="fill:#474B63;"
			d="M133.761,0.04c-26.243,0-47.516,21.274-47.516,47.517s21.273,47.52,47.516,47.52
		s47.516-21.276,47.516-47.52S160.004,0.04,133.761,0.04z M133.761,66.806c-10.63,0-19.249-8.618-19.249-19.249
		c0-10.63,8.62-19.248,19.249-19.248c10.63,0,19.247,8.619,19.247,19.248C153.008,58.189,144.391,66.806,133.761,66.806z" />
		<path style="fill:#474B63;"
			d="M378.239,0.04c-26.241,0-47.516,21.274-47.516,47.517s21.275,47.52,47.516,47.52
		c26.245,0,47.516-21.276,47.516-47.52S404.484,0.04,378.239,0.04z M378.239,66.806c-10.63,0-19.247-8.618-19.247-19.249
		c0-10.63,8.618-19.248,19.247-19.248c10.632,0,19.249,8.619,19.249,19.248C397.488,58.189,388.87,66.806,378.239,66.806z" />
	</g>
	<g>
		<path style="fill:#3E4356;" d="M114.627,45.49c0.874-20.401,14.603-37.471,33.299-43.302c-30.631-9.554-61.681,13.395-61.681,45.37
		c0,31.967,31.045,54.927,61.681,45.372C124.738,85.695,112.806,62.565,114.627,45.49z" />
		<path style="fill:#3E4356;" d="M358.991,47.557c0-20.697,13.629-39.198,33.413-45.37c-30.631-9.553-61.682,13.395-61.682,45.37
		c0,31.967,31.047,54.925,61.682,45.372C372.641,86.764,358.991,68.275,358.991,47.557z" />
	</g>
	<g>
	</g>
	<g>
	</g>
	<g>
	</g>
	<g>
	</g>
	<g>
	</g>
	<g>
	</g>
	<g>
	</g>
	<g>
	</g>
	<g>
	</g>
	<g>
	</g>
	<g>
	</g>
	<g>
	</g>
	<g>
	</g>
	<g>
	</g>
	<g>
	</g>
</svg>