<?xml version="1.0" encoding="iso-8859-1"?>
<!-- Generator: Adobe Illustrator 19.0.0, SVG Export Plug-In . SVG Version: 6.00 Build 0)  -->
<svg version="1.1" id="Capa_1" xmlns="http://www.w3.org/2000/svg" xmlns:xlink="http://www.w3.org/1999/xlink" x="0px" y="0px"
	 viewBox="0 0 496.485 496.485" style="enable-background:new 0 0 496.485 496.485;" xml:space="preserve">
<rect x="34.133" y="198.594" style="fill:#E1E6E9;" width="435.2" height="256"/>
<path style="fill:#193651;" d="M469.333,462.352h-435.2c-4.655,0-7.758-3.103-7.758-7.758v-256c0-4.655,3.103-7.758,7.758-7.758
	h435.2c4.655,0,7.758,3.103,7.758,7.758v256C477.091,458.473,473.212,462.352,469.333,462.352z M41.891,446.836h419.685V206.352
	H41.891V446.836z"/>
<rect x="287.806" y="198.594" style="fill:#2BA1DB;" width="136.533" height="256"/>
<path style="fill:#193651;" d="M424.339,462.352H287.806c-4.655,0-7.758-3.103-7.758-7.758v-256c0-4.655,3.103-7.758,7.758-7.758
	h136.533c4.655,0,7.758,3.103,7.758,7.758v256C432.097,458.473,428.994,462.352,424.339,462.352z M295.564,446.836h121.018V206.352
	H295.564V446.836z"/>
<rect x="74.473" y="198.594" style="fill:#2BA1DB;" width="153.6" height="162.909"/>
<path style="fill:#193651;" d="M228.073,369.261h-153.6c-4.655,0-7.758-3.103-7.758-7.758V198.594c0-4.655,3.103-7.758,7.758-7.758
	h153.6c4.655,0,7.758,3.103,7.758,7.758v162.909C235.83,366.158,231.952,369.261,228.073,369.261z M82.23,353.745h138.085V206.352
	H82.23V353.745z"/>
<rect x="97.342" y="222.565" style="fill:#FFFFFF;" width="107.055" height="116.364"/>
<path style="fill:#193651;" d="M241.261,369.261H61.285c-4.655,0-7.758-3.103-7.758-7.758c0-4.655,3.103-7.758,7.758-7.758h179.976
	c4.655,0,7.758,3.103,7.758,7.758C249.018,366.158,245.139,369.261,241.261,369.261z"/>
<g>
	<rect x="309.527" y="217.212" style="fill:#FFFFFF;" width="93.091" height="110.933"/>
	<rect x="309.527" y="344.436" style="fill:#FFFFFF;" width="93.091" height="91.539"/>
</g>
<rect x="13.964" y="454.594" style="fill:#F16050;" width="474.764" height="34.133"/>
<path style="fill:#193651;" d="M488.727,496.485H13.964c-4.655,0-7.758-3.103-7.758-7.758v-34.133c0-4.655,3.103-7.758,7.758-7.758
	h474.764c4.655,0,7.758,3.103,7.758,7.758v34.133C496.485,493.382,493.382,496.485,488.727,496.485z M21.721,480.97H480.97v-18.618
	H21.721V480.97z"/>
<path style="fill:#D0D1D1;" d="M296.339,198.594c0.776,27.152,21.721,49.648,48.097,49.648l0,0
	c26.376,0,47.321-21.721,48.097-49.648H296.339z"/>
<path style="fill:#193651;" d="M344.436,256c-30.255,0-55.079-24.824-55.855-57.406c0-2.327,0.776-3.879,2.327-5.43
	c1.552-1.552,3.103-2.327,5.43-2.327h96.194c2.327,0,3.879,0.776,5.43,2.327c1.552,1.552,2.327,3.879,2.327,5.43
	C399.515,230.4,374.691,256,344.436,256z M304.873,206.352c3.879,19.394,20.17,34.133,39.564,34.133
	c19.394,0,35.685-14.739,39.564-34.133H304.873z"/>
<polygon style="fill:#D0D1D1;" points="287.806,91.539 296.339,198.594 392.533,198.594 366.933,91.539 "/>
<path style="fill:#193651;" d="M392.533,206.352h-96.194c-3.879,0-7.758-3.103-7.758-6.982l-8.533-107.055
	c0-2.327,0.776-4.655,2.327-6.206c1.552-1.552,3.879-2.327,5.43-2.327h79.127c3.879,0,6.982,2.327,7.758,6.206l25.6,107.055
	c0.776,2.327,0,4.655-1.552,6.982C397.188,205.576,394.861,206.352,392.533,206.352z M303.321,190.836h79.127l-21.721-91.539
	h-65.164L303.321,190.836z"/>
<path style="fill:#D0D1D1;" d="M103.952,198.594c0.776,27.152,21.721,49.648,48.097,49.648l0,0
	c26.376,0,47.321-21.721,48.097-49.648H103.952z"/>
<path style="fill:#193651;" d="M152.048,256c-30.255,0-55.079-24.824-55.855-57.406c0-2.327,0.776-3.879,2.327-5.43
	c1.552-1.552,3.103-2.327,5.43-2.327h96.194c2.327,0,3.879,0.776,5.43,2.327c1.552,1.552,2.327,3.879,2.327,5.43
	C207.127,230.4,182.303,256,152.048,256z M112.485,206.352c3.879,19.394,20.17,34.133,39.564,34.133s35.685-14.739,39.564-34.133
	H112.485z"/>
<polygon style="fill:#D0D1D1;" points="129.552,91.539 103.952,198.594 200.145,198.594 208.679,91.539 "/>
<path style="fill:#193651;" d="M200.145,206.352h-96.194c-2.327,0-4.655-0.776-6.206-3.103c-1.552-1.552-2.327-4.655-1.552-6.982
	l25.6-107.055c0.776-3.879,3.879-6.206,7.758-6.206h79.127c2.327,0,3.879,0.776,5.43,2.327c1.552,1.552,2.327,3.879,2.327,6.206
	l-8.533,107.055C207.903,203.248,204.024,206.352,200.145,206.352z M114.036,190.836h79.127l6.982-91.539h-65.164L114.036,190.836z"
	/>
<path style="fill:#FDBE5E;" d="M392.533,198.594c0.776,27.152,21.721,49.648,48.097,49.648l0,0
	c26.376,0,47.321-21.721,48.097-49.648H392.533z"/>
<path style="fill:#193651;" d="M440.63,256c-30.255,0-55.079-24.824-55.855-57.406c0-2.327,0.776-3.879,2.327-5.43
	c1.552-1.552,3.103-2.327,5.43-2.327h96.194c2.327,0,3.879,0.776,5.43,2.327c1.551,1.552,2.327,3.879,2.327,5.43
	C495.709,230.4,470.885,256,440.63,256z M401.067,206.352c3.879,19.394,20.17,34.133,39.564,34.133s35.685-14.739,39.564-34.133
	H401.067z"/>
<polygon style="fill:#FDBE5E;" points="366.933,91.539 392.533,198.594 488.727,198.594 446.836,91.539 "/>
<path style="fill:#193651;" d="M488.727,206.352h-96.194c-3.879,0-6.982-2.327-7.758-6.206L359.952,93.091
	c-0.776-2.327,0-4.655,1.552-6.982c1.552-1.552,3.879-3.103,6.206-3.103h79.127c3.103,0,6.206,2.327,6.982,4.655l41.891,107.055
	c0.776,2.327,0.776,5.43-0.776,6.982C493.382,204.8,491.055,206.352,488.727,206.352z M398.739,190.836h78.352L440.63,99.297
	h-64.388L398.739,190.836z"/>
<path style="fill:#FDBE5E;" d="M200.145,198.594c0.776,27.152,21.721,49.648,48.097,49.648l0,0
	c26.376,0,47.321-21.721,48.097-49.648H200.145z"/>
<path style="fill:#193651;" d="M248.242,256c-30.255,0-55.079-24.824-55.855-57.406c0-2.327,0.776-3.879,2.327-5.43
	c1.552-1.552,3.103-2.327,5.43-2.327h96.194c2.327,0,3.879,0.776,5.43,2.327c1.552,1.552,2.327,3.879,2.327,5.43
	C303.321,230.4,278.497,256,248.242,256z M208.679,206.352c3.879,19.394,20.17,34.133,39.564,34.133s35.685-14.739,39.564-34.133
	H208.679z"/>
<polygon style="fill:#FDBE5E;" points="208.679,91.539 200.145,198.594 296.339,198.594 287.806,91.539 "/>
<path style="fill:#193651;" d="M296.339,206.352h-96.194c-2.327,0-3.879-0.776-5.43-2.327c-1.552-1.552-2.327-3.879-2.327-6.206
	l8.533-107.055c0-3.879,3.879-6.982,7.758-6.982h79.127c3.879,0,7.758,3.103,7.758,6.982l8.533,107.055
	c0,2.327-0.776,4.655-2.327,6.206C300.218,205.576,298.667,206.352,296.339,206.352z M208.679,190.836h79.127l-6.982-91.539h-65.164
	L208.679,190.836z"/>
<path style="fill:#FDBE5E;" d="M7.758,198.594c0.776,27.152,21.721,49.648,48.097,49.648l0,0c26.376,0,47.321-21.721,48.097-49.648
	H7.758z"/>
<path style="fill:#193651;" d="M55.855,256C25.6,256,0.776,231.176,0,198.594c0-2.327,0.776-3.879,2.327-5.43
	c1.552-1.552,3.103-2.327,5.43-2.327h96.194c2.327,0,3.879,0.776,5.43,2.327c1.552,1.552,2.327,3.879,2.327,5.43
	C110.933,230.4,86.109,256,55.855,256z M16.291,206.352c3.879,19.394,20.17,34.133,39.564,34.133s35.685-14.739,39.564-34.133
	H16.291z"/>
<polygon style="fill:#FDBE5E;" points="49.648,91.539 7.758,198.594 103.952,198.594 129.552,91.539 "/>
<path style="fill:#193651;" d="M103.952,206.352H7.758c-2.327,0-4.655-1.552-6.206-3.103C0,200.921,0,198.594,0.776,196.267
	L42.667,89.212c1.552-3.879,3.879-5.43,6.982-5.43h79.127c2.327,0,4.655,0.776,6.206,3.103c1.552,1.552,2.327,4.655,1.552,6.982
	l-25.6,107.055C110.933,204.024,107.83,206.352,103.952,206.352z M19.394,190.836h78.352l21.721-91.539H55.079L19.394,190.836z"/>
<path style="fill:#F16050;" d="M433.648,7.758H62.836c-6.982,0-13.188,6.206-13.188,13.964v69.818h396.412V21.721
	C446.836,13.964,440.63,7.758,433.648,7.758z"/>
<path style="fill:#193651;" d="M446.836,99.297H49.648c-4.655,0-7.758-3.103-7.758-7.758V21.721C41.891,10.085,51.2,0,62.836,0
	h370.812c11.636,0,20.945,10.085,20.945,21.721v69.818C454.594,95.418,450.715,99.297,446.836,99.297z M57.406,83.782h380.897
	V21.721c0-3.103-2.327-6.206-5.43-6.206H62.836c-3.103,0-5.43,3.103-5.43,6.206V83.782z"/>
<g>
	<path style="fill:#FFFFFF;" d="M194.715,31.03c-1.552,0-3.103,0-4.655,0.776c-1.552,0.776-1.552,1.552-1.552,3.103
		c0,1.552,0.776,3.103,1.552,3.879c1.552,0.776,3.879,1.552,7.758,2.327c3.879,0.776,6.982,2.327,8.533,3.879
		c2.327,1.552,3.103,3.879,3.103,7.758s-1.552,6.206-3.879,7.758c-2.327,2.327-5.43,3.103-10.085,3.103
		c-6.206,0-10.861-2.327-15.515-6.206l3.879-4.655c3.879,3.103,7.758,4.655,11.636,4.655c2.327,0,3.879-0.776,4.655-1.552
		c1.552,0.776,2.327-0.776,2.327-1.552s-0.776-3.103-1.552-3.879s-3.103-1.552-6.206-2.327c-3.103-0.776-4.655-1.552-6.206-1.552
		c-1.552-0.776-3.103-1.552-3.879-2.327c-2.327-1.552-3.103-4.655-3.103-7.758c0-3.879,1.552-6.206,3.879-7.758
		c2.327-1.552,5.43-3.103,9.309-3.103c2.327,0,4.655,0.776,6.982,1.552s4.655,1.552,6.206,3.103l-3.103,4.655
		c-0.776-0.776-2.327-1.552-4.655-2.327C198.594,31.806,196.267,31.03,194.715,31.03z"/>
	<path style="fill:#FFFFFF;" d="M222.642,48.873v15.515h-6.206V24.048h6.206v16.291c0.776-1.552,2.327-3.103,3.879-3.879
		c1.552-0.776,3.879-1.552,5.43-1.552c3.103,0,6.206,0.776,7.758,3.103c2.327,2.327,3.103,4.655,3.103,8.533v17.842h-6.206V48.873
		c0-5.43-2.327-7.758-6.982-7.758c-2.327,0-3.879,0.776-5.43,2.327C223.418,44.218,222.642,45.77,222.642,48.873z"/>
	<path style="fill:#FFFFFF;" d="M275.394,60.509c-3.103,3.103-6.206,4.655-10.861,4.655s-7.758-1.552-10.861-4.655
		c-3.103-3.103-4.655-6.206-4.655-10.861c0-3.879,1.552-7.758,4.655-10.861c3.103-3.103,6.206-4.655,10.861-4.655
		s7.758,1.552,10.861,4.655c3.103,3.103,4.655,6.206,4.655,10.861S278.497,57.406,275.394,60.509z M258.327,56.63
		c1.552,1.552,3.879,2.327,6.206,2.327s4.655-0.776,6.206-2.327s2.327-3.879,2.327-6.982s-0.776-5.43-2.327-6.982
		c-1.552-1.552-3.879-2.327-6.206-2.327s-4.655,0.776-6.206,2.327c-1.552,2.327-2.327,4.655-2.327,6.982
		C256,52.752,256.776,55.079,258.327,56.63z"/>
	<path style="fill:#FFFFFF;" d="M302.545,34.909c3.879,0,6.982,1.552,10.085,3.879s3.879,6.206,3.879,10.861
		s-1.552,7.758-3.879,10.861c-3.103,3.103-6.206,3.879-9.309,3.879c-3.879,0-6.982-1.552-10.085-4.655v14.739h-6.206V35.685h6.206
		v5.43C295.564,37.236,298.667,34.909,302.545,34.909z M293.236,49.648c0,3.103,0.776,4.655,2.327,6.982
		c1.552,1.552,3.879,2.327,6.206,2.327s4.655-0.776,6.206-2.327c1.552-1.552,2.327-3.879,2.327-6.982s-0.776-5.43-2.327-6.982
		c-1.552-1.552-3.879-3.103-6.206-3.103s-4.655,0.776-6.206,3.103S293.236,47.321,293.236,49.648z"/>
</g>
<g>
	<rect x="97.745" y="397.964" style="fill:#193651;" width="15.515" height="15.515"/>
	<rect x="143.515" y="397.964" style="fill:#193651;" width="15.515" height="15.515"/>
	<rect x="189.285" y="397.964" style="fill:#193651;" width="15.515" height="15.515"/>
</g>
<g>
</g>
<g>
</g>
<g>
</g>
<g>
</g>
<g>
</g>
<g>
</g>
<g>
</g>
<g>
</g>
<g>
</g>
<g>
</g>
<g>
</g>
<g>
</g>
<g>
</g>
<g>
</g>
<g>
</g>
</svg>
